{
	"asset":{
		"generator":"Khronos glTF Blender I/O v4.3.47",
		"version":"2.0"
	},
	"extensionsUsed":[
		"KHR_materials_transmission",
		"KHR_materials_specular"
	],
	"scene":0,
	"scenes":[
		{
			"name":"Scene",
			"nodes":[
				0
			]
		}
	],
	"nodes":[
		{
			"mesh":0,
			"name":"10106_Computer Mouse_v1_L3",
			"rotation":[
				0.7071068286895752,
				0,
				0,
				0.7071068286895752
			]
		}
	],
	"materials":[
		{
			"doubleSided":true,
			"extensions":{
				"KHR_materials_transmission":{
					"transmissionFactor":1
				},
				"KHR_materials_specular":{
					"specularFactor":0.8999999165534973
				}
			},
			"name":"_10106_Computer_Mouse_v1_L310106_Computer_Mouse_v1.001",
			"pbrMetallicRoughness":{
				"baseColorTexture":{
					"index":0
				},
				"metallicFactor":0,
				"roughnessFactor":0.7697827219963074
			}
		}
	],
	"meshes":[
		{
			"name":"10106_Computer Mouse_v1_L3.001",
			"primitives":[
				{
					"attributes":{
						"POSITION":0,
						"NORMAL":1,
						"TEXCOORD_0":2
					},
					"indices":3,
					"material":0
				}
			]
		}
	],
	"textures":[
		{
			"sampler":0,
			"source":0
		}
	],
	"images":[
		{
			"mimeType":"image/jpeg",
			"name":"10106_Computer Mouse_v1_Diffuse",
			"uri":"10106_Computer%20Mouse_v1_Diffuse.jpg"
		}
	],
	"accessors":[
		{
			"bufferView":0,
			"componentType":5126,
			"count":9583,
			"max":[
				7.301000118255615,
				4.303100109100342,
				3.315999984741211
			],
			"min":[
				-4.880899906158447,
				0,
				-4.406199932098389
			],
			"type":"VEC3"
		},
		{
			"bufferView":1,
			"componentType":5126,
			"count":9583,
			"type":"VEC3"
		},
		{
			"bufferView":2,
			"componentType":5126,
			"count":9583,
			"type":"VEC2"
		},
		{
			"bufferView":3,
			"componentType":5123,
			"count":48288,
			"type":"SCALAR"
		}
	],
	"bufferViews":[
		{
			"buffer":0,
			"byteLength":114996,
			"byteOffset":0,
			"target":34962
		},
		{
			"buffer":0,
			"byteLength":114996,
			"byteOffset":114996,
			"target":34962
		},
		{
			"buffer":0,
			"byteLength":76664,
			"byteOffset":229992,
			"target":34962
		},
		{
			"buffer":0,
			"byteLength":96576,
			"byteOffset":306656,
			"target":34963
		}
	],
	"samplers":[
		{
			"magFilter":9729,
			"minFilter":9987
		}
	],
	"buffers":[
		{
			"byteLength":403232,
			"uri":"Mouse.bin"
		}
	]
}
