{
	"asset":{
		"generator":"Khronos glTF Blender I/O v4.3.47",
		"version":"2.0"
	},
	"extensionsUsed":[
		"KHR_materials_specular"
	],
	"scene":0,
	"scenes":[
		{
			"name":"Scene",
			"nodes":[
				0
			]
		}
	],
	"nodes":[
		{
			"mesh":0,
			"name":"Text",
			"rotation":[
				0.7071068286895752,
				0,
				0,
				0.7071068286895752
			]
		}
	],
	"materials":[
		{
			"doubleSided":true,
			"name":"Material.011",
			"pbrMetallicRoughness":{
				"baseColorFactor":[
					0.800000011920929,
					0.800000011920929,
					0.800000011920929,
					1
				],
				"roughnessFactor":0.05131673812866211
			}
		},
		{
			"doubleSided":true,
			"extensions":{
				"KHR_materials_specular":{
					"specularColorFactor":[
						1.600000023841858,
						1.600000023841858,
						1.600000023841858
					]
				}
			},
			"name":"None",
			"pbrMetallicRoughness":{
				"baseColorFactor":[
					0.800000011920929,
					0.800000011920929,
					0.800000011920929,
					1
				],
				"metallicFactor":0,
				"roughnessFactor":0.2928932309150696
			}
		},
		{
			"doubleSided":true,
			"name":"Material.006",
			"pbrMetallicRoughness":{
				"baseColorFactor":[
					0.020378999412059784,
					0.020378999412059784,
					0.020378999412059784,
					1
				],
				"roughnessFactor":0.525658369064331
			}
		},
		{
			"doubleSided":true,
			"name":"STAND",
			"pbrMetallicRoughness":{
				"baseColorFactor":[
					0.800000011920929,
					0.800000011920929,
					0.800000011920929,
					1
				],
				"roughnessFactor":0.12721139192581177
			}
		},
		{
			"doubleSided":true,
			"name":"YELLOW_RUB",
			"pbrMetallicRoughness":{
				"baseColorFactor":[
					0.800000011920929,
					0.6942510008811951,
					0.005073999986052513,
					1
				],
				"metallicFactor":0,
				"roughnessFactor":0.525658369064331
			}
		},
		{
			"doubleSided":true,
			"name":"metal",
			"pbrMetallicRoughness":{
				"baseColorFactor":[
					0.800000011920929,
					0.800000011920929,
					0.800000011920929,
					1
				],
				"roughnessFactor":0.09875082969665527
			}
		},
		{
			"doubleSided":true,
			"name":"Material.002",
			"pbrMetallicRoughness":{
				"baseColorFactor":[
					0.800000011920929,
					0.800000011920929,
					0.800000011920929,
					1
				],
				"metallicFactor":0,
				"roughnessFactor":0.525658369064331
			}
		},
		{
			"doubleSided":true,
			"name":"Material.001",
			"pbrMetallicRoughness":{
				"baseColorFactor":[
					0.800000011920929,
					0.04376799985766411,
					0.0171549990773201,
					1
				],
				"metallicFactor":0,
				"roughnessFactor":0.525658369064331
			}
		},
		{
			"doubleSided":true,
			"name":"Material.004",
			"pbrMetallicRoughness":{
				"baseColorFactor":[
					0.800000011920929,
					0.800000011920929,
					0.800000011920929,
					1
				],
				"roughnessFactor":0.09875082969665527
			}
		},
		{
			"doubleSided":true,
			"name":"Material.005",
			"pbrMetallicRoughness":{
				"baseColorFactor":[
					0.800000011920929,
					0.800000011920929,
					0.800000011920929,
					1
				],
				"metallicFactor":0,
				"roughnessFactor":0.525658369064331
			}
		},
		{
			"doubleSided":true,
			"name":"Material.007",
			"pbrMetallicRoughness":{
				"baseColorFactor":[
					0.800000011920929,
					0.800000011920929,
					0.800000011920929,
					1
				],
				"roughnessFactor":0.5644681453704834
			}
		},
		{
			"doubleSided":true,
			"name":"Material.003",
			"pbrMetallicRoughness":{
				"baseColorFactor":[
					0.0908380001783371,
					0.0908380001783371,
					0.0908380001783371,
					1
				],
				"metallicFactor":0,
				"roughnessFactor":0.3704192638397217
			}
		},
		{
			"doubleSided":true,
			"extensions":{
				"KHR_materials_specular":{
					"specularFactor":0
				}
			},
			"name":"(null)",
			"pbrMetallicRoughness":{
				"baseColorFactor":[
					0.800000011920929,
					0.800000011920929,
					0.800000011920929,
					1
				],
				"metallicFactor":0
			}
		},
		{
			"doubleSided":true,
			"name":"Material.009",
			"pbrMetallicRoughness":{
				"baseColorFactor":[
					0.012217000126838684,
					0.012217000126838684,
					0.012217000126838684,
					1
				],
				"metallicFactor":0.49090901017189026,
				"roughnessFactor":0.525658369064331
			}
		},
		{
			"doubleSided":true,
			"name":"Material.010",
			"pbrMetallicRoughness":{
				"baseColorFactor":[
					0.800000011920929,
					0.800000011920929,
					0.800000011920929,
					1
				],
				"metallicFactor":0,
				"roughnessFactor":0.2884874939918518
			}
		},
		{
			"doubleSided":true,
			"name":"Material.008",
			"pbrMetallicRoughness":{
				"baseColorFactor":[
					0.1959879994392395,
					0.1959879994392395,
					0.1959879994392395,
					1
				],
				"metallicFactor":0,
				"roughnessFactor":0.4911607503890991
			}
		},
		{
			"alphaMode":"MASK",
			"doubleSided":true,
			"name":"GLASS",
			"pbrMetallicRoughness":{
				"baseColorFactor":[
					0.014670000411570072,
					0.014670000411570072,
					0.014670000411570072,
					0
				],
				"metallicFactor":0,
				"roughnessFactor":0.05131673812866211
			}
		}
	],
	"meshes":[
		{
			"name":"Text",
			"primitives":[
				{
					"attributes":{
						"POSITION":0,
						"NORMAL":1,
						"TEXCOORD_0":2
					},
					"indices":3,
					"material":0
				},
				{
					"attributes":{
						"POSITION":4,
						"NORMAL":5,
						"TEXCOORD_0":6
					},
					"indices":7,
					"material":1
				},
				{
					"attributes":{
						"POSITION":8,
						"NORMAL":9,
						"TEXCOORD_0":10
					},
					"indices":11,
					"material":2
				},
				{
					"attributes":{
						"POSITION":12,
						"NORMAL":13,
						"TEXCOORD_0":14
					},
					"indices":15,
					"material":3
				},
				{
					"attributes":{
						"POSITION":16,
						"NORMAL":17,
						"TEXCOORD_0":18
					},
					"indices":19,
					"material":4
				},
				{
					"attributes":{
						"POSITION":20,
						"NORMAL":21,
						"TEXCOORD_0":22
					},
					"indices":23,
					"material":5
				},
				{
					"attributes":{
						"POSITION":24,
						"NORMAL":25,
						"TEXCOORD_0":26
					},
					"indices":27,
					"material":6
				},
				{
					"attributes":{
						"POSITION":28,
						"NORMAL":29,
						"TEXCOORD_0":30
					},
					"indices":27,
					"material":7
				},
				{
					"attributes":{
						"POSITION":31,
						"NORMAL":32,
						"TEXCOORD_0":33
					},
					"indices":34,
					"material":8
				},
				{
					"attributes":{
						"POSITION":35,
						"NORMAL":36,
						"TEXCOORD_0":37
					},
					"indices":38,
					"material":9
				},
				{
					"attributes":{
						"POSITION":39,
						"NORMAL":40,
						"TEXCOORD_0":41
					},
					"indices":42,
					"material":10
				},
				{
					"attributes":{
						"POSITION":43,
						"NORMAL":44,
						"TEXCOORD_0":45
					},
					"indices":46,
					"material":11
				},
				{
					"attributes":{
						"POSITION":47,
						"NORMAL":48,
						"TEXCOORD_0":49
					},
					"indices":50,
					"material":12
				},
				{
					"attributes":{
						"POSITION":51,
						"NORMAL":52,
						"TEXCOORD_0":53
					},
					"indices":54,
					"material":13
				},
				{
					"attributes":{
						"POSITION":55,
						"NORMAL":56,
						"TEXCOORD_0":57
					},
					"indices":58,
					"material":14
				},
				{
					"attributes":{
						"POSITION":59,
						"NORMAL":60,
						"TEXCOORD_0":61
					},
					"indices":62,
					"material":15
				},
				{
					"attributes":{
						"POSITION":63,
						"NORMAL":64,
						"TEXCOORD_0":65
					},
					"indices":66,
					"material":16
				}
			]
		}
	],
	"accessors":[
		{
			"bufferView":0,
			"componentType":5126,
			"count":4469,
			"max":[
				0.006020000204443932,
				-0.29944801330566406,
				-0.14473499357700348
			],
			"min":[
				-0.014681000262498856,
				-0.30153900384902954,
				-0.1663309931755066
			],
			"type":"VEC3"
		},
		{
			"bufferView":1,
			"componentType":5126,
			"count":4469,
			"type":"VEC3"
		},
		{
			"bufferView":2,
			"componentType":5126,
			"count":4469,
			"type":"VEC2"
		},
		{
			"bufferView":3,
			"componentType":5123,
			"count":19056,
			"type":"SCALAR"
		},
		{
			"bufferView":4,
			"componentType":5126,
			"count":144,
			"max":[
				0.3365519940853119,
				-0.43675199151039124,
				-0.4497169852256775
			],
			"min":[
				0.31470799446105957,
				-0.474916011095047,
				-0.4581269919872284
			],
			"type":"VEC3"
		},
		{
			"bufferView":5,
			"componentType":5126,
			"count":144,
			"type":"VEC3"
		},
		{
			"bufferView":6,
			"componentType":5126,
			"count":144,
			"type":"VEC2"
		},
		{
			"bufferView":7,
			"componentType":5123,
			"count":216,
			"type":"SCALAR"
		},
		{
			"bufferView":8,
			"componentType":5126,
			"count":648,
			"max":[
				0.33413198590278625,
				-0.45089301466941833,
				-0.516323983669281
			],
			"min":[
				0.3236030042171478,
				-0.4536769986152649,
				-0.656885027885437
			],
			"type":"VEC3"
		},
		{
			"bufferView":9,
			"componentType":5126,
			"count":648,
			"type":"VEC3"
		},
		{
			"bufferView":10,
			"componentType":5126,
			"count":648,
			"type":"VEC2"
		},
		{
			"bufferView":11,
			"componentType":5123,
			"count":972,
			"type":"SCALAR"
		},
		{
			"bufferView":12,
			"componentType":5126,
			"count":54113,
			"max":[
				0.7453029751777649,
				-0.17226900160312653,
				-0.012846999801695347
			],
			"min":[
				-0.7421320080757141,
				-0.5689700245857239,
				-0.21762700378894806
			],
			"type":"VEC3"
		},
		{
			"bufferView":13,
			"componentType":5126,
			"count":54113,
			"type":"VEC3"
		},
		{
			"bufferView":14,
			"componentType":5126,
			"count":54113,
			"type":"VEC2"
		},
		{
			"bufferView":15,
			"componentType":5123,
			"count":162816,
			"type":"SCALAR"
		},
		{
			"bufferView":16,
			"componentType":5126,
			"count":288,
			"max":[
				0.35722601413726807,
				-0.4403260052204132,
				-0.7105240225791931
			],
			"min":[
				0.31553998589515686,
				-0.46590399742126465,
				-0.8238909840583801
			],
			"type":"VEC3"
		},
		{
			"bufferView":17,
			"componentType":5126,
			"count":288,
			"type":"VEC3"
		},
		{
			"bufferView":18,
			"componentType":5126,
			"count":288,
			"type":"VEC2"
		},
		{
			"bufferView":19,
			"componentType":5123,
			"count":1014,
			"type":"SCALAR"
		},
		{
			"bufferView":20,
			"componentType":5126,
			"count":681,
			"max":[
				0.3593220114707947,
				-0.4403260052204132,
				-0.7105240225791931
			],
			"min":[
				0.31553998589515686,
				-0.46590399742126465,
				-0.8238909840583801
			],
			"type":"VEC3"
		},
		{
			"bufferView":21,
			"componentType":5126,
			"count":681,
			"type":"VEC3"
		},
		{
			"bufferView":22,
			"componentType":5126,
			"count":681,
			"type":"VEC2"
		},
		{
			"bufferView":23,
			"componentType":5123,
			"count":2880,
			"type":"SCALAR"
		},
		{
			"bufferView":24,
			"componentType":5126,
			"count":128,
			"max":[
				0.35722601413726807,
				-0.4447120130062103,
				-0.7580680251121521
			],
			"min":[
				0.3439449965953827,
				-0.46225398778915405,
				-0.7756109833717346
			],
			"type":"VEC3"
		},
		{
			"bufferView":25,
			"componentType":5126,
			"count":128,
			"type":"VEC3"
		},
		{
			"bufferView":26,
			"componentType":5126,
			"count":128,
			"type":"VEC2"
		},
		{
			"bufferView":27,
			"componentType":5123,
			"count":474,
			"type":"SCALAR"
		},
		{
			"bufferView":28,
			"componentType":5126,
			"count":128,
			"max":[
				0.35722601413726807,
				-0.4447120130062103,
				-0.7141730189323425
			],
			"min":[
				0.3439449965953827,
				-0.46225398778915405,
				-0.731715977191925
			],
			"type":"VEC3"
		},
		{
			"bufferView":29,
			"componentType":5126,
			"count":128,
			"type":"VEC3"
		},
		{
			"bufferView":30,
			"componentType":5126,
			"count":128,
			"type":"VEC2"
		},
		{
			"bufferView":31,
			"componentType":5126,
			"count":5517,
			"max":[
				0.3363820016384125,
				-0.4458349943161011,
				-0.5131710171699524
			],
			"min":[
				0.30606400966644287,
				-0.4594210088253021,
				-0.6602630019187927
			],
			"type":"VEC3"
		},
		{
			"bufferView":32,
			"componentType":5126,
			"count":5517,
			"type":"VEC3"
		},
		{
			"bufferView":33,
			"componentType":5126,
			"count":5517,
			"type":"VEC2"
		},
		{
			"bufferView":34,
			"componentType":5123,
			"count":11628,
			"type":"SCALAR"
		},
		{
			"bufferView":35,
			"componentType":5126,
			"count":1296,
			"max":[
				0.3301999866962433,
				-0.45364099740982056,
				-0.5192430019378662
			],
			"min":[
				0.3275350034236908,
				-0.4543449878692627,
				-0.6544089913368225
			],
			"type":"VEC3"
		},
		{
			"bufferView":36,
			"componentType":5126,
			"count":1296,
			"type":"VEC3"
		},
		{
			"bufferView":37,
			"componentType":5126,
			"count":1296,
			"type":"VEC2"
		},
		{
			"bufferView":38,
			"componentType":5123,
			"count":1944,
			"type":"SCALAR"
		},
		{
			"bufferView":39,
			"componentType":5126,
			"count":1354,
			"max":[
				0.34449899196624756,
				-0.4350009858608246,
				-0.3753649890422821
			],
			"min":[
				0.3044860064983368,
				-0.47662898898124695,
				-0.47004398703575134
			],
			"type":"VEC3"
		},
		{
			"bufferView":40,
			"componentType":5126,
			"count":1354,
			"type":"VEC3"
		},
		{
			"bufferView":41,
			"componentType":5126,
			"count":1354,
			"type":"VEC2"
		},
		{
			"bufferView":42,
			"componentType":5123,
			"count":2580,
			"type":"SCALAR"
		},
		{
			"bufferView":43,
			"componentType":5126,
			"count":743,
			"max":[
				1,
				-0.32186898589134216,
				-0.13750100135803223
			],
			"min":[
				-1,
				-0.48997798562049866,
				-1.3286809921264648
			],
			"type":"VEC3"
		},
		{
			"bufferView":44,
			"componentType":5126,
			"count":743,
			"type":"VEC3"
		},
		{
			"bufferView":45,
			"componentType":5126,
			"count":743,
			"type":"VEC2"
		},
		{
			"bufferView":46,
			"componentType":5123,
			"count":1464,
			"type":"SCALAR"
		},
		{
			"bufferView":47,
			"componentType":5126,
			"count":8,
			"max":[
				1,
				-0.32190901041030884,
				-0.13750100135803223
			],
			"min":[
				-1,
				-0.32190901041030884,
				-1.3286809921264648
			],
			"type":"VEC3"
		},
		{
			"bufferView":48,
			"componentType":5126,
			"count":8,
			"type":"VEC3"
		},
		{
			"bufferView":49,
			"componentType":5126,
			"count":8,
			"type":"VEC2"
		},
		{
			"bufferView":50,
			"componentType":5123,
			"count":30,
			"type":"SCALAR"
		},
		{
			"bufferView":51,
			"componentType":5126,
			"count":48,
			"max":[
				1,
				-0.30080699920654297,
				-0.13750100135803223
			],
			"min":[
				-1,
				-0.32190901041030884,
				-1.3286809921264648
			],
			"type":"VEC3"
		},
		{
			"bufferView":52,
			"componentType":5126,
			"count":48,
			"type":"VEC3"
		},
		{
			"bufferView":53,
			"componentType":5126,
			"count":48,
			"type":"VEC2"
		},
		{
			"bufferView":54,
			"componentType":5123,
			"count":96,
			"type":"SCALAR"
		},
		{
			"bufferView":55,
			"componentType":5126,
			"count":4,
			"max":[
				0.986519992351532,
				-0.3080059885978699,
				-0.1736689954996109
			],
			"min":[
				-0.986519992351532,
				-0.3080059885978699,
				-1.3131250143051147
			],
			"type":"VEC3"
		},
		{
			"bufferView":56,
			"componentType":5126,
			"count":4,
			"type":"VEC3"
		},
		{
			"bufferView":57,
			"componentType":5126,
			"count":4,
			"type":"VEC2"
		},
		{
			"bufferView":58,
			"componentType":5123,
			"count":6,
			"type":"SCALAR"
		},
		{
			"bufferView":59,
			"componentType":5126,
			"count":20562,
			"max":[
				0.33812499046325684,
				-0.41982901096343994,
				-0.3360770046710968
			],
			"min":[
				0.28279998898506165,
				-0.4869590103626251,
				-0.9132090210914612
			],
			"type":"VEC3"
		},
		{
			"bufferView":60,
			"componentType":5126,
			"count":20562,
			"type":"VEC3"
		},
		{
			"bufferView":61,
			"componentType":5126,
			"count":20562,
			"type":"VEC2"
		},
		{
			"bufferView":62,
			"componentType":5123,
			"count":49632,
			"type":"SCALAR"
		},
		{
			"bufferView":63,
			"componentType":5126,
			"count":9,
			"max":[
				0.9873819947242737,
				-0.3029029965400696,
				-0.16648299992084503
			],
			"min":[
				-0.9906899929046631,
				-0.3029029965400696,
				-1.3170080184936523
			],
			"type":"VEC3"
		},
		{
			"bufferView":64,
			"componentType":5126,
			"count":9,
			"type":"VEC3"
		},
		{
			"bufferView":65,
			"componentType":5126,
			"count":9,
			"type":"VEC2"
		},
		{
			"bufferView":66,
			"componentType":5123,
			"count":24,
			"type":"SCALAR"
		}
	],
	"bufferViews":[
		{
			"buffer":0,
			"byteLength":53628,
			"byteOffset":0,
			"target":34962
		},
		{
			"buffer":0,
			"byteLength":53628,
			"byteOffset":53628,
			"target":34962
		},
		{
			"buffer":0,
			"byteLength":35752,
			"byteOffset":107256,
			"target":34962
		},
		{
			"buffer":0,
			"byteLength":38112,
			"byteOffset":143008,
			"target":34963
		},
		{
			"buffer":0,
			"byteLength":1728,
			"byteOffset":181120,
			"target":34962
		},
		{
			"buffer":0,
			"byteLength":1728,
			"byteOffset":182848,
			"target":34962
		},
		{
			"buffer":0,
			"byteLength":1152,
			"byteOffset":184576,
			"target":34962
		},
		{
			"buffer":0,
			"byteLength":432,
			"byteOffset":185728,
			"target":34963
		},
		{
			"buffer":0,
			"byteLength":7776,
			"byteOffset":186160,
			"target":34962
		},
		{
			"buffer":0,
			"byteLength":7776,
			"byteOffset":193936,
			"target":34962
		},
		{
			"buffer":0,
			"byteLength":5184,
			"byteOffset":201712,
			"target":34962
		},
		{
			"buffer":0,
			"byteLength":1944,
			"byteOffset":206896,
			"target":34963
		},
		{
			"buffer":0,
			"byteLength":649356,
			"byteOffset":208840,
			"target":34962
		},
		{
			"buffer":0,
			"byteLength":649356,
			"byteOffset":858196,
			"target":34962
		},
		{
			"buffer":0,
			"byteLength":432904,
			"byteOffset":1507552,
			"target":34962
		},
		{
			"buffer":0,
			"byteLength":325632,
			"byteOffset":1940456,
			"target":34963
		},
		{
			"buffer":0,
			"byteLength":3456,
			"byteOffset":2266088,
			"target":34962
		},
		{
			"buffer":0,
			"byteLength":3456,
			"byteOffset":2269544,
			"target":34962
		},
		{
			"buffer":0,
			"byteLength":2304,
			"byteOffset":2273000,
			"target":34962
		},
		{
			"buffer":0,
			"byteLength":2028,
			"byteOffset":2275304,
			"target":34963
		},
		{
			"buffer":0,
			"byteLength":8172,
			"byteOffset":2277332,
			"target":34962
		},
		{
			"buffer":0,
			"byteLength":8172,
			"byteOffset":2285504,
			"target":34962
		},
		{
			"buffer":0,
			"byteLength":5448,
			"byteOffset":2293676,
			"target":34962
		},
		{
			"buffer":0,
			"byteLength":5760,
			"byteOffset":2299124,
			"target":34963
		},
		{
			"buffer":0,
			"byteLength":1536,
			"byteOffset":2304884,
			"target":34962
		},
		{
			"buffer":0,
			"byteLength":1536,
			"byteOffset":2306420,
			"target":34962
		},
		{
			"buffer":0,
			"byteLength":1024,
			"byteOffset":2307956,
			"target":34962
		},
		{
			"buffer":0,
			"byteLength":948,
			"byteOffset":2308980,
			"target":34963
		},
		{
			"buffer":0,
			"byteLength":1536,
			"byteOffset":2309928,
			"target":34962
		},
		{
			"buffer":0,
			"byteLength":1536,
			"byteOffset":2311464,
			"target":34962
		},
		{
			"buffer":0,
			"byteLength":1024,
			"byteOffset":2313000,
			"target":34962
		},
		{
			"buffer":0,
			"byteLength":66204,
			"byteOffset":2314024,
			"target":34962
		},
		{
			"buffer":0,
			"byteLength":66204,
			"byteOffset":2380228,
			"target":34962
		},
		{
			"buffer":0,
			"byteLength":44136,
			"byteOffset":2446432,
			"target":34962
		},
		{
			"buffer":0,
			"byteLength":23256,
			"byteOffset":2490568,
			"target":34963
		},
		{
			"buffer":0,
			"byteLength":15552,
			"byteOffset":2513824,
			"target":34962
		},
		{
			"buffer":0,
			"byteLength":15552,
			"byteOffset":2529376,
			"target":34962
		},
		{
			"buffer":0,
			"byteLength":10368,
			"byteOffset":2544928,
			"target":34962
		},
		{
			"buffer":0,
			"byteLength":3888,
			"byteOffset":2555296,
			"target":34963
		},
		{
			"buffer":0,
			"byteLength":16248,
			"byteOffset":2559184,
			"target":34962
		},
		{
			"buffer":0,
			"byteLength":16248,
			"byteOffset":2575432,
			"target":34962
		},
		{
			"buffer":0,
			"byteLength":10832,
			"byteOffset":2591680,
			"target":34962
		},
		{
			"buffer":0,
			"byteLength":5160,
			"byteOffset":2602512,
			"target":34963
		},
		{
			"buffer":0,
			"byteLength":8916,
			"byteOffset":2607672,
			"target":34962
		},
		{
			"buffer":0,
			"byteLength":8916,
			"byteOffset":2616588,
			"target":34962
		},
		{
			"buffer":0,
			"byteLength":5944,
			"byteOffset":2625504,
			"target":34962
		},
		{
			"buffer":0,
			"byteLength":2928,
			"byteOffset":2631448,
			"target":34963
		},
		{
			"buffer":0,
			"byteLength":96,
			"byteOffset":2634376,
			"target":34962
		},
		{
			"buffer":0,
			"byteLength":96,
			"byteOffset":2634472,
			"target":34962
		},
		{
			"buffer":0,
			"byteLength":64,
			"byteOffset":2634568,
			"target":34962
		},
		{
			"buffer":0,
			"byteLength":60,
			"byteOffset":2634632,
			"target":34963
		},
		{
			"buffer":0,
			"byteLength":576,
			"byteOffset":2634692,
			"target":34962
		},
		{
			"buffer":0,
			"byteLength":576,
			"byteOffset":2635268,
			"target":34962
		},
		{
			"buffer":0,
			"byteLength":384,
			"byteOffset":2635844,
			"target":34962
		},
		{
			"buffer":0,
			"byteLength":192,
			"byteOffset":2636228,
			"target":34963
		},
		{
			"buffer":0,
			"byteLength":48,
			"byteOffset":2636420,
			"target":34962
		},
		{
			"buffer":0,
			"byteLength":48,
			"byteOffset":2636468,
			"target":34962
		},
		{
			"buffer":0,
			"byteLength":32,
			"byteOffset":2636516,
			"target":34962
		},
		{
			"buffer":0,
			"byteLength":12,
			"byteOffset":2636548,
			"target":34963
		},
		{
			"buffer":0,
			"byteLength":246744,
			"byteOffset":2636560,
			"target":34962
		},
		{
			"buffer":0,
			"byteLength":246744,
			"byteOffset":2883304,
			"target":34962
		},
		{
			"buffer":0,
			"byteLength":164496,
			"byteOffset":3130048,
			"target":34962
		},
		{
			"buffer":0,
			"byteLength":99264,
			"byteOffset":3294544,
			"target":34963
		},
		{
			"buffer":0,
			"byteLength":108,
			"byteOffset":3393808,
			"target":34962
		},
		{
			"buffer":0,
			"byteLength":108,
			"byteOffset":3393916,
			"target":34962
		},
		{
			"buffer":0,
			"byteLength":72,
			"byteOffset":3394024,
			"target":34962
		},
		{
			"buffer":0,
			"byteLength":48,
			"byteOffset":3394096,
			"target":34963
		}
	],
	"buffers":[
		{
			"byteLength":3394144,
			"uri":"TV.bin"
		}
	]
}
